<mxfile host="Electron" modified="2024-03-04T21:52:27.496Z" agent="Mozilla/5.0 (Windows NT 10.0; Win64; x64) AppleWebKit/537.36 (KHTML, like Gecko) draw.io/23.1.5 Chrome/120.0.6099.109 Electron/28.1.0 Safari/537.36" etag="nBHizV1m8o7EI1gRAQlt" version="23.1.5" type="device">
  <diagram name="Page-1" id="3y5pf39N021trjWYAkBF">
    <mxGraphModel dx="1120" dy="524" grid="1" gridSize="10" guides="1" tooltips="1" connect="1" arrows="1" fold="1" page="1" pageScale="1" pageWidth="850" pageHeight="1100" math="0" shadow="0">
      <root>
        <mxCell id="0" />
        <mxCell id="1" parent="0" />
        <mxCell id="OrceEvYsXX2ewVkilPh6-4" value="Presentation room 1" style="ellipse;whiteSpace=wrap;html=1;" vertex="1" parent="1">
          <mxGeometry x="160" y="580" width="120" height="40" as="geometry" />
        </mxCell>
        <mxCell id="OrceEvYsXX2ewVkilPh6-5" value="Presentation room 2" style="ellipse;whiteSpace=wrap;html=1;" vertex="1" parent="1">
          <mxGeometry x="290" y="580" width="120" height="40" as="geometry" />
        </mxCell>
        <mxCell id="OrceEvYsXX2ewVkilPh6-6" value="Presentation room 3" style="ellipse;whiteSpace=wrap;html=1;" vertex="1" parent="1">
          <mxGeometry x="431" y="580" width="120" height="40" as="geometry" />
        </mxCell>
        <mxCell id="OrceEvYsXX2ewVkilPh6-7" value="LIbrary 1" style="ellipse;whiteSpace=wrap;html=1;" vertex="1" parent="1">
          <mxGeometry x="300" y="360" width="120" height="40" as="geometry" />
        </mxCell>
        <mxCell id="OrceEvYsXX2ewVkilPh6-8" value="University 1" style="ellipse;whiteSpace=wrap;html=1;" vertex="1" parent="1">
          <mxGeometry x="300" y="200" width="120" height="40" as="geometry" />
        </mxCell>
        <mxCell id="OrceEvYsXX2ewVkilPh6-10" value="" style="endArrow=none;html=1;rounded=0;entryX=0.5;entryY=1;entryDx=0;entryDy=0;" edge="1" parent="1" target="OrceEvYsXX2ewVkilPh6-8">
          <mxGeometry width="50" height="50" relative="1" as="geometry">
            <mxPoint x="360" y="360" as="sourcePoint" />
            <mxPoint x="450" y="360" as="targetPoint" />
          </mxGeometry>
        </mxCell>
        <mxCell id="OrceEvYsXX2ewVkilPh6-14" value="" style="endArrow=none;html=1;rounded=0;exitX=0.5;exitY=1;exitDx=0;exitDy=0;entryX=0.5;entryY=0;entryDx=0;entryDy=0;" edge="1" parent="1" source="OrceEvYsXX2ewVkilPh6-7" target="OrceEvYsXX2ewVkilPh6-4">
          <mxGeometry width="50" height="50" relative="1" as="geometry">
            <mxPoint x="500" y="440" as="sourcePoint" />
            <mxPoint x="550" y="390" as="targetPoint" />
          </mxGeometry>
        </mxCell>
        <mxCell id="OrceEvYsXX2ewVkilPh6-15" value="" style="endArrow=none;html=1;rounded=0;entryX=0.5;entryY=0;entryDx=0;entryDy=0;" edge="1" parent="1" target="OrceEvYsXX2ewVkilPh6-5">
          <mxGeometry width="50" height="50" relative="1" as="geometry">
            <mxPoint x="360" y="400" as="sourcePoint" />
            <mxPoint x="570" y="450" as="targetPoint" />
          </mxGeometry>
        </mxCell>
        <mxCell id="OrceEvYsXX2ewVkilPh6-16" value="" style="endArrow=none;html=1;rounded=0;entryX=0.383;entryY=0;entryDx=0;entryDy=0;entryPerimeter=0;" edge="1" parent="1" target="OrceEvYsXX2ewVkilPh6-6">
          <mxGeometry width="50" height="50" relative="1" as="geometry">
            <mxPoint x="360" y="400" as="sourcePoint" />
            <mxPoint x="480" y="460" as="targetPoint" />
          </mxGeometry>
        </mxCell>
        <mxCell id="OrceEvYsXX2ewVkilPh6-18" value="LIbrary 2" style="ellipse;whiteSpace=wrap;html=1;" vertex="1" parent="1">
          <mxGeometry x="540" y="360" width="120" height="40" as="geometry" />
        </mxCell>
        <mxCell id="OrceEvYsXX2ewVkilPh6-19" value="" style="endArrow=none;html=1;rounded=0;exitX=0.342;exitY=-0.025;exitDx=0;exitDy=0;exitPerimeter=0;entryX=0.5;entryY=1;entryDx=0;entryDy=0;" edge="1" parent="1" source="OrceEvYsXX2ewVkilPh6-18" target="OrceEvYsXX2ewVkilPh6-8">
          <mxGeometry width="50" height="50" relative="1" as="geometry">
            <mxPoint x="230" y="360" as="sourcePoint" />
            <mxPoint x="310" y="230" as="targetPoint" />
          </mxGeometry>
        </mxCell>
      </root>
    </mxGraphModel>
  </diagram>
</mxfile>
